<svg width="43" height="22" viewBox="0 0 43 22" fill="none" xmlns="http://www.w3.org/2000/svg">
<path d="M38.4984 8.97023C39.3183 8.06263 39.794 6.8548 39.794 5.55922C39.794 2.70825 37.4627 0.376892 34.6117 0.376892C31.7607 0.376892 29.4294 2.70825 29.4294 5.55922C29.4294 6.8548 29.9051 8.06436 30.7249 8.97023C29.3433 9.79007 28.2637 10.9996 27.6159 12.4251C27.0541 11.8212 26.4063 11.2594 25.6725 10.8697C26.4924 9.96213 26.9681 8.7543 26.9681 7.45872C26.9681 4.60775 24.6367 2.27639 21.7858 2.27639C18.9348 2.27639 16.6034 4.60775 16.6034 7.45872C16.6034 8.7543 17.0792 9.96385 17.899 10.8697C17.1652 11.3016 16.5174 11.8195 15.9556 12.4251C15.3079 10.9575 14.1843 9.74792 12.8466 8.97023C13.6664 8.06263 14.1422 6.8548 14.1422 5.55922C14.1422 2.70825 11.8108 0.376892 8.95985 0.376892C6.10888 0.376892 3.77752 2.70825 3.77752 5.55922C3.77752 6.8548 4.25326 8.06436 5.0731 8.97023C2.78389 10.3097 1.23023 12.771 1.23023 15.62V18.643C1.23023 19.0749 1.57606 19.4207 2.00793 19.4207H14.0141V20.5004C14.0141 20.9323 14.3599 21.2781 14.7918 21.2781H28.6554C29.0872 21.2781 29.4331 20.9323 29.4331 20.5004V19.4207H41.4392C41.8711 19.4207 42.2169 19.0749 42.2169 18.643V15.62C42.3418 12.7707 40.786 10.3094 38.4984 8.97023ZM34.6117 1.93047C36.5989 1.93047 38.2386 3.52801 38.2386 5.55741C38.2386 7.58681 36.6411 9.18435 34.6117 9.18435C32.6244 9.18435 30.9847 7.58681 30.9847 5.55741C30.9831 3.52969 32.6245 1.93047 34.6117 1.93047ZM21.8277 3.78781C23.815 3.78781 25.4547 5.38535 25.4547 7.41475C25.4547 9.44415 23.8571 11.0417 21.8277 11.0417C19.7983 11.0417 18.2008 9.44415 18.2008 7.41475C18.2008 5.38535 19.8405 3.78781 21.8277 3.78781ZM9.0438 1.93047C11.0311 1.93047 12.6707 3.52801 12.6707 5.55741C12.6707 7.58681 11.0732 9.18435 9.0438 9.18435C7.0144 9.18603 5.41686 7.50246 5.41686 5.51521C5.41686 3.52965 7.05828 1.93047 9.0438 1.93047ZM2.86949 17.867V15.6217C2.86949 13.1604 4.33712 11.0012 6.45428 10.0515C7.1881 10.4834 8.09569 10.7432 9.00157 10.7432C9.95131 10.7432 10.815 10.4834 11.5489 10.0515C13.1903 10.7853 14.442 12.2547 14.9177 14.0243C14.3998 15.0601 14.054 16.2696 14.054 17.5231V17.9111L2.86966 17.9094L2.86949 17.867ZM27.9597 19.7243H15.6958V17.479C15.6958 15.0177 17.1634 12.8585 19.2805 11.9089C20.0144 12.3407 20.922 12.6005 21.8278 12.6005C22.7776 12.6005 23.6413 12.3407 24.3751 11.9089C26.4905 12.8586 27.9599 15.0179 27.9599 17.479L27.9597 19.7243ZM40.7856 17.867H29.5572V17.479C29.5572 16.2273 29.2552 15.0599 28.6935 13.9802C29.1692 12.2089 30.4209 10.7413 32.0623 10.0075C32.7961 10.4393 33.7037 10.6991 34.6096 10.6991C35.5594 10.6991 36.4231 10.4393 37.1569 10.0075C39.2723 11.0011 40.7417 13.1165 40.7417 15.5776L40.7434 17.8668L40.7856 17.867Z" fill="#324C3D" stroke="#324C3D" stroke-width="0.5"/>
</svg>
