<svg width="34" height="24" viewBox="0 0 34 24" fill="none" xmlns="http://www.w3.org/2000/svg">
<path d="M8.12575 0.122684C7.70658 0.126518 7.3321 0.388507 7.18259 0.780846L0.537167 18.0569C0.417035 18.3713 0.45921 18.7253 0.649631 19.0026C0.840052 19.2799 1.15573 19.4461 1.49182 19.4461H7.11518V22.5146C7.11645 23.0782 7.57524 23.5344 8.13885 23.5331C8.70246 23.5331 9.1587 23.0782 9.16125 22.5146V19.4461H15.808V22.5146C15.8093 23.0782 16.2668 23.5331 16.8304 23.5331C17.3927 23.5331 17.8502 23.0782 17.8528 22.5146V19.4461H24.4995V22.5146H24.4982C24.5008 23.0782 24.957 23.5331 25.5206 23.5331C26.083 23.5319 26.5392 23.0769 26.5405 22.5146V19.4461H32.1674C32.5035 19.4448 32.8179 19.2787 33.0071 19.0013C33.1975 18.724 33.2384 18.3713 33.1182 18.0569L26.4728 0.780846C26.3284 0.399991 25.9719 0.143132 25.5655 0.122684C25.1245 0.102236 24.7207 0.368059 24.5622 0.780846L21.1744 9.59277L17.784 0.780846C17.6396 0.401267 17.2843 0.143132 16.8792 0.122684C16.4382 0.102236 16.0331 0.368059 15.8759 0.780846L12.4842 9.59768L9.09376 0.780846C8.94807 0.401267 8.5928 0.143132 8.18767 0.122684C8.16723 0.122684 8.14678 0.121406 8.12633 0.122684H8.12575ZM8.13725 3.99503L11.3872 12.4438L9.48043 17.401H2.97929L8.13725 3.99503ZM16.8288 3.99503L21.9843 17.4014H16.8556H16.83H11.6706L16.8288 3.99503ZM25.5167 3.99503L30.6761 17.4014H25.5206H25.5168H24.1787L22.2707 12.4428L25.5167 3.99503Z" fill="#324C3D"/>
</svg>
