<svg width="41" height="23" viewBox="0 0 41 23" fill="none" xmlns="http://www.w3.org/2000/svg">
<path d="M15.009 0.704681C14.5796 0.690878 14.1747 0.900981 13.9401 1.25833L1.05334 20.8931C0.806434 21.2703 0.784966 21.7519 0.998137 22.1491C1.21131 22.5447 1.62539 22.7932 2.07626 22.7947H38.8826C39.3611 22.7962 39.7981 22.5202 40.0006 22.0862C40.203 21.6522 40.134 21.1399 39.8242 20.7734L26.3317 4.82715C26.0771 4.52196 25.6907 4.3594 25.295 4.39006C24.8993 4.42073 24.542 4.64004 24.338 4.98049L21.2417 10.1518L16.0244 1.31203C15.8128 0.948572 15.4292 0.720032 15.009 0.704681ZM14.9109 4.2565L17.9673 9.42941C17.3202 9.55669 16.7527 9.7668 16.2957 10.0704C15.5565 10.5581 15.1087 11.1992 14.7836 11.6915C14.4584 12.1853 14.2299 12.5334 14.0306 12.7051C13.8327 12.8784 13.6901 12.9766 13.1257 12.9766C12.0369 12.9766 11.4833 12.5794 10.9158 12.0641C10.6889 11.8571 10.4665 11.6255 10.2288 11.3955L14.9109 4.2565ZM25.5617 7.71476L29.9157 12.8645C29.6718 12.9304 29.405 12.9765 29.0753 12.9765C27.7886 12.9765 27.9205 12.7894 27.2534 12.1161C26.6783 11.5364 25.6232 10.7757 23.8457 10.5748L25.5617 7.71476ZM19.337 11.7421L21.8843 16.056C22.0438 16.3473 22.3138 16.5621 22.6343 16.6495C22.9563 16.7384 23.2983 16.6924 23.5851 16.5237C23.8704 16.3535 24.0759 16.0759 24.1541 15.7523C24.2308 15.4287 24.174 15.0883 23.9946 14.8076L22.9073 12.9719C22.9165 12.9719 22.9226 12.9765 22.9334 12.9765C24.7997 12.9765 24.9684 13.2832 25.5159 13.8369C26.0634 14.3905 27.1615 15.4333 29.0754 15.4333C30.063 15.4333 30.8881 15.1665 31.569 14.8168L36.239 20.3407H4.36024L8.85827 13.4824C8.99782 13.6235 9.08371 13.714 9.26775 13.8826C10.0514 14.5958 11.3381 15.4331 13.1263 15.4331C14.1599 15.4331 15.0509 15.0696 15.6444 14.5528C16.238 14.036 16.5569 13.4686 16.8391 13.0407C17.1213 12.6128 17.3391 12.3275 17.6443 12.1251C17.951 11.9242 18.3835 11.7448 19.2576 11.7448C19.2852 11.7463 19.3098 11.7417 19.3374 11.7417L19.337 11.7421Z" fill="currentColor"/>
</svg>
