<svg width="33" height="27" viewBox="0 0 33 27" fill="none" xmlns="http://www.w3.org/2000/svg">
<path d="M32.6479 24.768C27.8529 19.7941 22.9222 1.50836 22.8329 1.32809C22.6987 0.879509 22.2501 0.56641 21.7121 0.700581L10.0158 3.88281C9.70273 3.97227 9.43309 4.24194 9.38833 4.55504C9.3436 4.68923 5.75743 20.0176 0.962469 24.8574C0.424443 25.3954 0.783552 26.3808 1.58998 26.3808H32.0663C32.9621 26.382 33.2754 25.306 32.6479 24.768ZM3.51725 24.5891C7.55057 19.0325 10.4198 8.05174 11.0473 5.4524L20.7282 2.85296C19.4285 7.29 15.4847 20.2425 11.5407 24.5893L3.51725 24.5891ZM18.8444 24.5891C20.0994 22.4829 21.2202 19.3456 21.9818 17.059C22.6988 19.344 23.8643 22.5263 25.1193 24.5891H18.8444ZM27.2702 24.5891C25.4772 22.3935 23.5052 16.0291 22.8777 13.698C22.5646 12.7574 21.3543 12.8468 21.1294 13.698C20.5019 16.0738 18.5299 22.437 16.7368 24.5891H13.8243C17.3197 19.7045 20.5466 9.79882 22.0264 4.82489C23.505 9.80012 26.732 19.7045 30.2285 24.5891H27.2702Z" fill="#324C3D"/>
</svg>
