<svg width="24" height="29" viewBox="0 0 24 29" fill="none" xmlns="http://www.w3.org/2000/svg">
<path d="M5.17969 0.0011799C4.79299 0.0405122 4.49854 0.389783 4.5 0.806708V1.61224H0.750005C0.726568 1.61066 0.70313 1.61066 0.679693 1.61224C0.292993 1.65157 -0.00145708 2.00084 5.42421e-06 2.41777V4.63297C5.42421e-06 7.51052 1.94386 9.91925 4.5 10.3973V10.4728C4.5 14.6483 7.46191 18.0831 11.25 18.4903V24.1668H6.00001C4.76659 24.1668 3.75001 25.2587 3.75001 26.5834V28.1945C3.75001 28.6397 4.08545 29 4.5 29H19.5C19.9146 29 20.25 28.6397 20.25 28.1945V26.5834C20.25 25.2587 19.2334 24.1668 18 24.1668H12.75V18.4903C16.5383 18.0828 19.5 14.6483 19.5 10.4728V10.3973C22.0562 9.91905 24 7.50875 24 4.63297V2.41777C24 1.97251 23.6646 1.61224 23.25 1.61224H19.5V0.806708C19.5 0.361452 19.1646 0.0011799 18.75 0.0011799H5.25C5.22657 -0.000393299 5.20313 -0.000393299 5.17969 0.0011799ZM6.00001 1.61224H18V10.473C18 14.057 15.3369 16.9173 12 16.9173C8.66311 16.9173 6.00001 14.057 6.00001 10.473V1.61224ZM1.50001 3.22329H4.5V8.73633C2.77148 8.29107 1.50001 6.64385 1.50001 4.63297V3.22329ZM19.5 3.22329H22.5V4.63297C22.5 6.64208 21.2285 8.30191 19.5 8.74882V3.22329ZM6.00001 25.7781H18C18.4292 25.7781 18.75 26.1226 18.75 26.5836V27.3891H5.25V26.5836C5.25 26.1227 5.57081 25.7781 6.00001 25.7781Z" fill="currentColor"/>
</svg>
