<svg width="34" height="34" viewBox="0 0 34 34" fill="none" xmlns="http://www.w3.org/2000/svg">
<path d="M32.9667 6.34094L27.3807 0.754877C26.9107 0.351643 26.208 0.378327 25.7707 0.81714C25.3319 1.25445 25.3052 1.95716 25.7084 2.42711L27.689 4.40772L27.5823 4.47888L15.8766 16.1846L10.3736 15.6035C9.58198 15.5279 8.79923 15.811 8.23884 16.3744L1.69222 22.9445C0.937637 23.662 0.497363 24.6494 0.470645 25.6901C0.443927 26.7308 0.832368 27.7403 1.54991 28.4949L5.27389 32.2189C5.97212 32.9156 6.91942 33.3055 7.90677 33.2981H8.06094C9.09869 33.2655 10.086 32.8416 10.8243 32.1122L17.3473 25.5891C17.9151 25.0316 18.1983 24.2459 18.1182 23.4543L17.5371 17.9514L29.2428 6.24563C29.268 6.21153 29.2918 6.17596 29.314 6.13889L31.2946 8.1195C31.7853 8.58053 32.5591 8.55681 33.0202 8.06613C33.2426 7.83042 33.3612 7.51614 33.3508 7.19295C33.3404 6.86828 33.2026 6.56288 32.9668 6.34052L32.9667 6.34094ZM15.758 23.6206C15.758 23.7021 15.7239 23.7792 15.6632 23.8341L9.14008 30.3572C8.82579 30.6774 8.40181 30.8641 7.95409 30.879C7.57458 30.9072 7.20247 30.7678 6.93415 30.4995L3.23389 26.7636C2.6735 26.1158 2.73726 25.1388 3.37621 24.5696L9.89929 18.0465C9.94822 17.9916 10.0164 17.9575 10.0891 17.9516L13.647 18.3311L9.81618 22.1619C9.56564 22.3769 9.41591 22.6867 9.40259 23.0173C9.38924 23.3464 9.51526 23.6681 9.74949 23.9009C9.98223 24.1351 10.3039 24.2611 10.633 24.2478C10.9636 24.2344 11.2735 24.0847 11.4884 23.8342L15.3192 20.0034L15.758 23.6206Z" fill="#324C3D"/>
</svg>
