<svg width="43" height="26" viewBox="0 0 43 26" fill="none" xmlns="http://www.w3.org/2000/svg">
<path fill-rule="evenodd" clip-rule="evenodd" d="M20.1242 10.5206C16.1594 5.64346 10.7062 3.40505 2.34703 3.3226C2.03213 3.31902 1.74586 3.52836 1.65998 3.83253C0.0854852 9.09259 1.6886 16.7271 6.45514 21.1554C10.4916 24.8948 15.1862 25.1525 18.9366 24.7248C18.9652 24.7231 18.9795 24.7177 19.0081 24.7105C24.8197 26.3351 31.561 25.6767 36.6141 20.6258C41.7527 15.4853 43.7136 7.15316 41.9676 1.283C41.8817 0.977044 41.5954 0.769496 41.2805 0.771282C31.5473 0.869686 27.0672 3.1706 23.0452 7.03719C21.8859 8.15186 20.9125 9.31664 20.1253 10.5208L20.1242 10.5206ZM20.1099 23.5192C25.2912 24.7698 31.16 24.0577 35.597 19.6134C40.2204 14.9991 42.0956 7.61699 40.7357 2.21173C31.9185 2.37992 27.7678 4.48761 24.0316 8.06953C19.6088 12.3296 18.1633 17.3928 19.1939 22.3794C23.9748 16.7007 27.9396 13.4299 33.0636 9.00896C33.3642 8.74952 33.8079 8.78531 34.0655 9.0841C34.3232 9.3829 34.2946 9.83555 33.994 10.0932C28.8695 14.5179 24.9193 17.7745 20.1099 23.5192ZM19.337 11.8356C15.687 7.09405 10.6344 4.93488 2.87617 4.76312C1.70246 9.55095 3.2197 16.1924 7.42789 20.1073C10.8059 23.2383 14.6992 23.6427 17.9627 23.3833C17.6478 22.1308 17.4617 20.873 17.4474 19.617C14.6562 16.765 11.9794 14.5177 8.77313 11.7608C8.47255 11.5031 8.44392 11.0505 8.70157 10.7517C8.95921 10.4529 9.41724 10.4189 9.71785 10.6765C12.5806 13.151 15.0425 15.2193 17.5186 17.6689C17.7333 15.6811 18.3202 13.7201 19.3365 11.8363L19.337 11.8356Z" fill="currentColor" stroke="currentColor" stroke-width="0.5"/>
</svg>
